# This file uses centimeters as units for non-parametric coordinates.

mtllib Mesa.mtl
g default
v -0.500000 1.279177 3.398665
v 5.376526 1.279177 3.398665
v -0.500000 1.587624 3.398665
v 5.376526 1.587624 3.398665
v -0.500000 1.587624 -0.346647
v 5.376526 1.587624 -0.346647
v -0.500000 1.279177 -0.346647
v 5.376526 1.279177 -0.346647
v -0.197565 -0.468237 3.315206
v 0.197565 -0.468237 3.315206
v -0.197565 1.282129 3.315206
v 0.197565 1.282129 3.315206
v -0.197565 1.282129 2.920076
v 0.197565 1.282129 2.920076
v -0.197565 -0.468237 2.920076
v 0.197565 -0.468237 2.920076
v 4.803244 -0.468237 3.306437
v 5.198374 -0.468237 3.306437
v 4.803244 1.282129 3.306437
v 5.198374 1.282129 3.306437
v 4.803244 1.282129 2.911307
v 5.198374 1.282129 2.911307
v 4.803244 -0.468237 2.911307
v 5.198374 -0.468237 2.911307
v 4.803244 -0.468237 0.197565
v 5.198374 -0.468237 0.197565
v 4.803244 1.282129 0.197565
v 5.198374 1.282129 0.197565
v 4.803244 1.282129 -0.197565
v 5.198374 1.282129 -0.197565
v 4.803244 -0.468237 -0.197565
v 5.198374 -0.468237 -0.197565
v 4.803244 0.560141 3.306437
v 5.198374 0.560141 3.306437
v 5.198374 0.560143 2.911307
v 4.803244 0.560143 2.911307
v -0.197565 0.632053 3.315206
v 0.197565 0.632053 3.315206
v 0.197565 0.632053 2.920076
v -0.197565 0.632053 2.920076
v -0.197565 0.249050 3.315206
v 0.197565 0.249050 3.315206
v 0.197565 0.249052 2.920076
v -0.197565 0.249052 2.920076
v 4.803244 0.178125 3.306437
v 5.198374 0.178125 3.306437
v 5.198374 0.178125 2.911307
v 4.803244 0.178125 2.911307
v 4.803244 0.517166 0.197565
v 5.198374 0.517166 0.197565
v 5.198374 0.517164 -0.197565
v 4.803244 0.517164 -0.197565
v 4.803244 0.139114 0.197565
v 5.198374 0.139114 0.197565
v 5.198374 0.139111 -0.197565
v 4.803244 0.139111 -0.197565
v -0.197565 -0.453573 0.197565
v 0.197565 -0.453573 0.197565
v -0.197565 1.296793 0.197565
v 0.197565 1.296793 0.197565
v -0.197565 1.296793 -0.197565
v 0.197565 1.296793 -0.197565
v -0.197565 -0.453573 -0.197565
v 0.197565 -0.453573 -0.197565
v -0.197565 0.551891 0.197565
v 0.197565 0.551891 0.197565
v 0.197565 0.551891 -0.197565
v -0.197565 0.551891 -0.197565
v -0.197565 0.124817 0.197565
v 0.197565 0.124817 0.197565
v 0.197565 0.124817 -0.197565
v -0.197565 0.124817 -0.197565
vt 0.432222 0.265244
vt 0.567778 0.265244
vt 0.567778 0.400800
vt 0.432222 0.400800
vt 0.522175 0.538612
vt 0.522405 0.461521
vt 0.538660 0.461570
vt 0.538430 0.538660
vt 0.430326 0.567992
vt 0.432008 0.430326
vt 0.567778 0.265244
vt 0.432222 0.265244
vt 0.432222 0.400800
vt 0.567778 0.400800
vt 0.380757 0.226766
vt 0.396914 0.226766
vt 0.625000 0.250000
vt 0.375000 0.250000
vt 0.625000 0.500000
vt 0.375000 0.500000
vt 0.625000 0.750000
vt 0.375000 0.750000
vt 0.625000 1.000000
vt 0.375000 1.000000
vt 0.391214 0.526845
vt 0.415687 0.526845
vt 0.415687 0.606979
vt 0.391214 0.606979
vt 0.396914 0.308028
vt 0.380757 0.308028
vt 0.625000 0.250000
vt 0.375000 0.250000
vt 0.625000 0.500000
vt 0.375000 0.500000
vt 0.625000 0.750000
vt 0.375000 0.750000
vt 0.625000 1.000000
vt 0.375000 1.000000
vt 0.415687 0.526845
vt 0.391214 0.526845
vt 0.391214 0.606979
vt 0.415687 0.606979
vt 0.380757 0.308028
vt 0.396914 0.308028
vt 0.625000 0.250000
vt 0.375000 0.250000
vt 0.625000 0.500000
vt 0.375000 0.500000
vt 0.625000 0.750000
vt 0.375000 0.750000
vt 0.625000 1.000000
vt 0.375000 1.000000
vt 0.391757 0.517980
vt 0.416230 0.517981
vt 0.416230 0.606979
vt 0.391757 0.606979
vt 0.375000 0.146880
vt 0.396914 0.226766
vt 0.380757 0.226766
vt 0.416230 0.517981
vt 0.125000 0.146881
vt 0.585237 0.217777
vt 0.601394 0.217777
vt 0.625000 0.157152
vt 0.601394 0.308028
vt 0.875000 0.157151
vt 0.391757 0.517980
vt 0.585237 0.308028
vt 0.585237 0.308028
vt 0.625000 0.102448
vt 0.601394 0.308028
vt 0.875000 0.102448
vt 0.391757 0.606979
vt 0.601394 0.217777
vt 0.375000 0.092318
vt 0.585237 0.217777
vt 0.625000 0.657682
vt 0.416230 0.606979
vt 0.125000 0.092318
vt 0.375000 0.657682
vt 0.375000 0.140742
vt 0.585237 0.212405
vt 0.601394 0.212405
vt 0.584313 0.512683
vt 0.125000 0.140742
vt 0.601394 0.308028
vt 0.375000 0.086746
vt 0.585237 0.308028
vt 0.585237 0.308028
vt 0.608786 0.512683
vt 0.125000 0.086746
vt 0.601394 0.308028
vt 0.601394 0.212404
vt 0.625000 0.143608
vt 0.625000 0.250000
vt 0.375000 0.250000
vt 0.625000 0.500000
vt 0.375000 0.500000
vt 0.585237 0.212404
vt 0.585237 0.170023
vt 0.375000 0.750000
vt 0.625000 0.750000
vt 0.625000 1.000000
vt 0.375000 1.000000
vt 0.875000 0.143608
vt 0.608786 0.606979
vt 0.584313 0.606979
vt 0.608786 0.512683
vt 0.601394 0.170023
vt 0.625000 0.082610
vt 0.601394 0.170023
vt 0.585237 0.170023
vt 0.584313 0.512683
vt 0.380757 0.178889
vt 0.396914 0.178889
vt 0.584313 0.606979
vt 0.875000 0.082610
vt 0.608786 0.606979
vt 0.569674 0.432008
vt 0.567992 0.569674
vt 0.567992 0.569674
vt 0.569674 0.432008
vt 0.432008 0.430326
vt 0.430326 0.567992
vt 0.538430 0.538660
vt 0.538660 0.461570
vt 0.522405 0.461521
vt 0.522175 0.538612
vt 0.464357 0.468869
vt 0.484489 0.468929
vt 0.488098 0.529359
vt 0.467914 0.529299
vt 0.484489 0.468929
vt 0.464357 0.468869
vt 0.467914 0.529299
vt 0.488098 0.529359
vt 0.462301 0.468862
vt 0.482224 0.468922
vt 0.483874 0.529346
vt 0.461367 0.529279
vt 0.482224 0.468922
vt 0.462301 0.468862
vt 0.461367 0.529279
vt 0.483874 0.529346
vt 0.391757 0.470890
vt 0.416230 0.470890
vt 0.415687 0.479633
vt 0.391214 0.479633
vt 0.391214 0.391214
vt 0.415687 0.391214
vt 0.415687 0.479633
vt 0.391214 0.479633
vt 0.415687 0.391214
vt 0.391214 0.391214
vt 0.391757 0.391214
vt 0.416230 0.391214
vt 0.416230 0.391214
vt 0.391757 0.391214
vt 0.391757 0.470890
vt 0.416230 0.470890
vt 0.584313 0.466081
vt 0.608786 0.466080
vt 0.584313 0.391214
vt 0.608786 0.391214
vt 0.608786 0.391214
vt 0.584313 0.391214
vt 0.584313 0.466081
vt 0.608786 0.466080
vt 0.584313 0.516964
vt 0.608786 0.516964
vt 0.608786 0.608786
vt 0.584313 0.608786
vt 0.608786 0.516964
vt 0.584313 0.516964
vt 0.584313 0.608786
vt 0.608786 0.608786
vt 0.608786 0.464319
vt 0.584313 0.464319
vt 0.584313 0.393021
vt 0.608786 0.393021
vt 0.608786 0.464319
vt 0.584313 0.464319
vt 0.608786 0.393021
vt 0.584313 0.393021
vt 0.396914 0.178889
vt 0.380757 0.178889
vt 0.380757 0.089225
vt 0.396914 0.089225
vt 0.396914 0.089225
vt 0.380757 0.089225
vt 0.585237 0.089225
vt 0.601394 0.089225
vt 0.585237 0.165147
vt 0.601394 0.165147
vt 0.601394 0.165146
vt 0.585237 0.165146
vt 0.585237 0.089225
vt 0.601394 0.089225
vt 0.601394 0.089225
vt 0.585237 0.089225
vt 0.380757 0.216745
vt 0.396914 0.216745
vt 0.396914 0.309861
vt 0.380757 0.309861
vt 0.380757 0.309861
vt 0.396914 0.309861
vt 0.396914 0.216745
vt 0.380757 0.216745
vt 0.380757 0.163359
vt 0.396914 0.163359
vt 0.396914 0.163359
vt 0.380757 0.163359
vt 0.380757 0.091058
vt 0.396914 0.091058
vt 0.396914 0.091058
vt 0.380757 0.091058
vn 0.000000 0.000000 1.000000
vn 0.000000 0.000000 1.000000
vn 0.000000 0.000000 1.000000
vn 0.000000 0.000000 1.000000
vn 0.000000 1.000000 0.000000
vn 0.000000 1.000000 0.000000
vn 0.000000 1.000000 0.000000
vn 0.000000 1.000000 0.000000
vn 0.000000 0.000000 -1.000000
vn 0.000000 0.000000 -1.000000
vn 0.000000 0.000000 -1.000000
vn 0.000000 0.000000 -1.000000
vn 0.000000 -1.000000 0.000000
vn 0.000000 -1.000000 0.000000
vn 0.000000 -1.000000 0.000000
vn 0.000000 -1.000000 0.000000
vn 1.000000 0.000000 0.000000
vn 1.000000 0.000000 0.000000
vn 1.000000 0.000000 0.000000
vn 1.000000 0.000000 0.000000
vn -1.000000 0.000000 0.000000
vn -1.000000 0.000000 0.000000
vn -1.000000 0.000000 0.000000
vn -1.000000 0.000000 0.000000
vn 0.000000 0.000000 1.000000
vn 0.000000 0.000000 1.000000
vn 0.000000 0.000000 1.000000
vn 0.000000 0.000000 1.000000
vn 0.000000 1.000000 0.000000
vn 0.000000 1.000000 0.000000
vn 0.000000 1.000000 0.000000
vn 0.000000 1.000000 0.000000
vn 0.000000 0.000000 -1.000000
vn 0.000000 0.000000 -1.000000
vn 0.000000 -0.000000 -1.000000
vn 0.000000 -0.000000 -1.000000
vn 0.000000 -1.000000 0.000000
vn 0.000000 -1.000000 0.000000
vn 0.000000 -1.000000 0.000000
vn 0.000000 -1.000000 0.000000
vn 1.000000 0.000000 0.000000
vn 1.000000 0.000000 0.000000
vn 1.000000 0.000000 0.000000
vn 1.000000 0.000000 0.000000
vn -1.000000 0.000000 0.000000
vn -1.000000 0.000000 0.000000
vn -1.000000 0.000000 0.000000
vn -1.000000 0.000000 0.000000
vn 0.000000 0.000000 1.000000
vn 0.000000 0.000000 1.000000
vn 0.000000 0.000000 1.000000
vn 0.000000 0.000000 1.000000
vn 0.000000 1.000000 0.000000
vn 0.000000 1.000000 0.000000
vn 0.000000 1.000000 0.000000
vn 0.000000 1.000000 0.000000
vn 0.000000 0.000000 -1.000000
vn 0.000000 0.000000 -1.000000
vn 0.000000 0.000000 -1.000000
vn 0.000000 0.000000 -1.000000
vn 0.000000 -1.000000 0.000000
vn 0.000000 -1.000000 0.000000
vn 0.000000 -1.000000 0.000000
vn 0.000000 -1.000000 0.000000
vn 1.000000 0.000000 0.000000
vn 1.000000 0.000000 0.000000
vn 1.000000 0.000000 0.000000
vn 1.000000 0.000000 0.000000
vn -1.000000 0.000000 0.000000
vn -1.000000 0.000000 0.000000
vn -1.000000 0.000000 0.000000
vn -1.000000 0.000000 0.000000
vn 0.000000 0.000000 1.000000
vn 0.000000 0.000000 1.000000
vn 0.000000 0.000000 1.000000
vn 0.000000 0.000000 1.000000
vn 0.000000 1.000000 0.000000
vn 0.000000 1.000000 0.000000
vn 0.000000 1.000000 0.000000
vn 0.000000 1.000000 0.000000
vn 0.000000 0.000000 -1.000000
vn 0.000000 0.000000 -1.000000
vn 0.000000 0.000000 -1.000000
vn 0.000000 0.000000 -1.000000
vn 0.000000 -1.000000 0.000000
vn 0.000000 -1.000000 0.000000
vn 0.000000 -1.000000 0.000000
vn 0.000000 -1.000000 0.000000
vn 1.000000 0.000000 0.000000
vn 1.000000 0.000000 0.000000
vn 1.000000 0.000000 0.000000
vn 1.000000 0.000000 0.000000
vn -1.000000 0.000000 0.000000
vn -1.000000 0.000000 0.000000
vn -1.000000 0.000000 0.000000
vn -1.000000 0.000000 0.000000
vn 0.000000 0.000000 1.000000
vn 0.000000 0.000000 1.000000
vn 1.000000 0.000000 0.000000
vn 1.000000 0.000000 0.000000
vn 0.000000 0.000000 -1.000000
vn 0.000000 0.000000 -1.000000
vn 0.000000 0.000000 1.000000
vn 0.000000 0.000000 1.000000
vn 0.000000 0.000000 -1.000000
vn 0.000000 0.000000 -1.000000
vn -1.000000 0.000000 0.000000
vn -1.000000 -0.000000 0.000000
vn 0.000000 0.000000 1.000000
vn 0.000000 0.000000 1.000000
vn 1.000000 0.000000 0.000000
vn 1.000000 0.000000 0.000000
vn 1.000000 0.000000 0.000000
vn 1.000000 0.000000 0.000000
vn 0.000000 0.000000 -1.000000
vn 0.000000 0.000000 -1.000000
vn -1.000000 -0.000000 0.000000
vn -1.000000 -0.000000 0.000000
vn 0.000000 0.000000 1.000000
vn 0.000000 0.000000 1.000000
vn 1.000000 0.000000 0.000000
vn 1.000000 0.000000 0.000000
vn 0.000000 0.000000 -1.000000
vn 0.000000 0.000000 -1.000000
vn -1.000000 0.000000 0.000000
vn -1.000000 0.000000 0.000000
vn -1.000000 0.000000 0.000000
vn -1.000000 0.000000 0.000000
vn -0.015398 -0.999881 -0.000002
vn -0.015398 -0.999881 -0.000002
vn -0.015398 -0.999881 -0.000002
vn -0.015398 -0.999881 -0.000002
vn 0.001904 0.000000 0.999998
vn 0.001904 0.000000 0.999998
vn 0.001904 0.000000 0.999998
vn 0.001904 0.000000 0.999998
vn 0.015612 0.999878 0.000002
vn 0.015612 0.999878 0.000002
vn 0.015612 0.999878 0.000002
vn 0.015612 0.999878 0.000002
vn -0.001904 -0.000000 -0.999998
vn -0.001904 -0.000000 -0.999998
vn -0.001904 -0.000000 -0.999998
vn -0.001904 -0.000000 -0.999998
vn 0.000000 0.000000 1.000000
vn 0.000000 0.000000 1.000000
vn 1.000000 0.000000 0.000000
vn 1.000000 0.000000 0.000000
vn 0.000000 0.000000 -1.000000
vn 0.000000 0.000000 -1.000000
vn 0.000000 0.000000 1.000000
vn 0.000000 0.000000 1.000000
vn 1.000000 0.000000 0.000000
vn 1.000000 0.000000 0.000000
vn 0.000000 0.000000 -1.000000
vn 0.000000 0.000000 -1.000000
vn -1.000000 0.000000 0.000000
vn -1.000000 0.000000 0.000000
vn -1.000000 0.000000 0.000000
vn -1.000000 0.000000 0.000000
vn 0.000000 0.000000 1.000000
vn 0.000000 0.000000 1.000000
vn 0.000000 0.000000 1.000000
vn 0.000000 0.000000 1.000000
vn 0.000000 1.000000 0.000000
vn 0.000000 1.000000 0.000000
vn 0.000000 1.000000 0.000000
vn 0.000000 1.000000 0.000000
vn 0.000000 0.000000 -1.000000
vn 0.000000 0.000000 -1.000000
vn 0.000000 0.000000 -1.000000
vn 0.000000 0.000000 -1.000000
vn 0.000000 -1.000000 0.000000
vn 0.000000 -1.000000 0.000000
vn 0.000000 -1.000000 0.000000
vn 0.000000 -1.000000 0.000000
vn 1.000000 0.000000 0.000000
vn 1.000000 0.000000 0.000000
vn 1.000000 0.000000 0.000000
vn 1.000000 0.000000 0.000000
vn -1.000000 0.000000 0.000000
vn -1.000000 0.000000 0.000000
vn -1.000000 0.000000 0.000000
vn -1.000000 0.000000 0.000000
vn 0.000000 0.000000 1.000000
vn 0.000000 0.000000 1.000000
vn 0.000000 0.000000 -1.000000
vn 0.000000 0.000000 -1.000000
vn -1.000000 0.000000 0.000000
vn -1.000000 0.000000 0.000000
vn 0.000000 0.000000 1.000000
vn 0.000000 0.000000 1.000000
vn 1.000000 0.000000 0.000000
vn 1.000000 0.000000 0.000000
vn 1.000000 0.000000 0.000000
vn 1.000000 0.000000 0.000000
vn 0.000000 0.000000 -1.000000
vn 0.000000 0.000000 -1.000000
vn -1.000000 0.000000 0.000000
vn -1.000000 0.000000 0.000000
vn 0.003104 -0.999995 0.000005
vn 0.003104 -0.999995 0.000005
vn 0.003104 -0.999995 0.000005
vn 0.003104 -0.999995 0.000005
vn -0.000000 0.000000 1.000000
vn -0.000000 0.000000 1.000000
vn -0.000000 0.000000 1.000000
vn -0.000000 0.000000 1.000000
vn 0.007540 0.999972 -0.000002
vn 0.007540 0.999972 -0.000002
vn 0.007540 0.999972 -0.000002
vn 0.007540 0.999972 -0.000002
vn -0.000000 0.000000 -1.000000
vn -0.000000 0.000000 -1.000000
vn -0.000000 0.000000 -1.000000
vn -0.000000 0.000000 -1.000000
s off
g Mesa
usemtl initialShadingGroup
f 1/5/1 2/6/2 4/7/3 3/8/4
f 3/9/5 4/10/6 6/119/7 5/120/8
f 5/125/9 6/126/10 8/127/11 7/128/12
f 7/121/13 8/122/14 2/123/15 1/124/16
f 2/1/17 8/2/18 6/3/19 4/4/20
f 7/11/21 1/12/22 3/13/23 5/14/24
s 1
f 37/15/25 38/16/26 12/29/27 11/30/28
s off
f 11/18/29 12/17/30 14/19/31 13/20/32
s 2
f 13/43/33 14/44/34 39/58/35 40/59/36
s off
f 15/22/37 16/21/38 10/23/39 9/24/40
f 38/25/41 39/26/42 14/27/43 12/28/44
s 3
f 40/39/45 37/40/46 11/41/47 13/42/48
s 4
f 33/62/49 34/63/50 20/65/51 19/68/52
s off
f 19/32/53 20/31/54 22/33/55 21/34/56
s 5
f 21/69/57 22/71/58 35/74/59 36/76/60
s off
f 23/36/61 24/35/62 18/37/63 17/38/64
s 6
f 34/53/65 35/54/66 22/55/67 20/56/68
s off
f 36/60/69 33/67/70 19/73/71 21/78/72
s 7
f 49/82/73 50/83/74 28/86/75 27/88/76
s off
f 27/46/77 28/45/78 30/47/79 29/48/80
s 8
f 29/89/81 30/92/82 51/93/83 52/99/84
s off
f 31/50/85 32/49/86 26/51/87 25/52/88
s 9
f 50/84/89 51/90/90 30/106/91 28/107/92
s off
f 52/108/93 49/113/94 27/116/95 29/118/96
s 4
f 45/100/97 46/109/98 34/63/50 33/62/49
s 6
f 46/145/99 47/146/100 35/54/66 34/53/65
s 5
f 36/76/60 35/74/59 47/111/101 48/112/102
s 1
f 41/114/103 42/115/104 38/16/26 37/15/25
s 2
f 40/59/36 39/58/35 43/185/105 44/186/106
s 3
f 44/147/107 41/148/108 37/40/46 40/39/45
s 1
f 9/187/109 10/188/110 42/115/104 41/114/103
s off
f 10/149/111 16/150/112 43/151/113 42/152/114
s 2
f 44/186/106 43/185/105 16/189/115 15/190/116
s 3
f 15/153/117 9/154/118 41/148/108 44/147/107
s 4
f 17/191/119 18/192/120 46/109/98 45/100/97
s 6
f 18/155/121 24/156/122 47/146/100 46/145/99
s 5
f 48/80/102 47/77/101 24/35/123 23/36/124
s off
f 23/157/125 17/158/126 45/159/127 48/160/128
f 48/79/129 45/75/130 42/70/131 43/72/132
f 45/129/133 33/130/134 38/131/135 42/132/136
f 33/57/137 36/61/138 39/66/139 38/64/140
f 36/133/141 48/134/142 43/135/143 39/136/144
s 7
f 53/193/145 54/194/146 50/83/74 49/82/73
s 9
f 54/161/147 55/162/148 51/90/90 50/84/89
s 8
f 52/99/84 51/93/83 55/195/149 56/196/150
s 7
f 25/197/151 26/198/152 54/194/146 53/193/145
s 9
f 26/163/153 32/164/154 55/162/148 54/161/147
s 8
f 56/196/150 55/195/149 32/199/155 31/200/156
s off
f 31/165/157 25/166/158 53/167/159 56/168/160
s 10
f 65/201/161 66/202/162 60/203/163 59/204/164
s off
f 59/96/165 60/95/166 62/97/167 61/98/168
s 11
f 61/205/169 62/206/170 67/207/171 68/208/172
s off
f 63/101/173 64/102/174 58/103/175 57/104/176
f 66/169/177 67/170/178 62/171/179 60/172/180
s 12
f 68/173/181 65/174/182 59/175/183 61/176/184
s 10
f 69/209/185 70/210/186 66/202/162 65/201/161
s 11
f 68/208/172 67/207/171 71/211/187 72/212/188
s 12
f 72/177/189 69/178/190 65/174/182 68/173/181
s 10
f 57/213/191 58/214/192 70/210/186 69/209/185
s off
f 58/179/193 64/180/194 71/181/195 70/182/196
s 11
f 72/212/188 71/211/187 64/215/197 63/216/198
s 12
f 63/183/199 57/184/200 69/178/190 72/177/189
s off
f 56/91/201 53/87/202 70/110/203 71/117/204
f 53/137/205 49/138/206 66/139/207 70/140/208
f 49/81/209 52/85/210 67/105/211 66/94/212
f 52/141/213 56/142/214 71/143/215 67/144/216
