# This file uses centimeters as units for non-parametric coordinates.

mtllib Enxada.mtl
g default
v -3.469550 1.615767 -0.123649
v -3.469550 1.525250 -0.214166
v -3.469550 1.401601 -0.247297
v -3.469550 1.401601 0.247297
v -3.469550 1.525250 0.214166
v -3.469550 1.615767 0.123649
v -3.469550 1.648898 0.000000
v -3.551550 1.615767 -0.123649
v -3.551550 1.525250 -0.214166
v -3.551550 1.401601 -0.247297
v -3.551550 1.401601 0.247297
v -3.551550 1.525250 0.214166
v -3.551550 1.615767 0.123649
v -3.551550 1.648898 0.000000
v -3.469550 1.375919 0.000000
v -3.551550 1.375919 0.000000
v -3.564413 1.159117 -0.500000
v -3.564413 0.793092 -0.866025
v -3.575809 0.293092 -1.000000
v -3.575809 0.293092 1.000000
v -3.564413 0.793092 0.866025
v -3.564413 1.159117 0.500000
v -3.646581 1.159117 -0.500000
v -3.646581 0.793092 -0.866025
v -3.635185 0.293092 -1.000000
v -3.635185 0.293092 1.000000
v -3.646581 0.793092 0.866025
v -3.646581 1.159117 0.500000
v -3.646581 1.293092 0.000000
v -3.575809 0.293092 0.000000
v -3.635185 0.293092 0.000000
v -3.646581 1.293092 0.250000
v -3.646581 1.293092 -0.250000
v -3.517491 1.293092 0.000000
v -3.542045 1.265075 0.229952
v -3.469550 1.401601 0.247297
v -3.581000 1.293092 0.250000
v -3.564413 1.281288 0.272026
v -3.564413 0.903417 0.000000
v -3.540952 0.943728 0.000000
v -3.542045 1.265075 -0.229952
v -3.564413 1.281288 -0.272026
v -3.581000 1.293092 -0.250000
v -3.469550 1.401601 -0.247297
v -3.517491 1.293092 0.218370
v -3.543464 1.263318 0.228694
v -3.517491 0.984039 0.000000
v -3.543464 1.263318 -0.228694
v -3.517491 1.293092 -0.218370
v -3.469550 1.400462 0.173074
v -3.469550 1.486999 0.149886
v -3.469550 1.550348 0.086537
v -3.469550 1.573536 0.000000
v -3.469550 1.550348 -0.086537
v -3.469550 1.486999 -0.149886
v -3.469550 1.400462 -0.173074
v -3.551550 1.400462 0.173074
v -3.551550 1.486999 0.149886
v -3.551550 1.550348 0.086537
v -3.551550 1.573536 0.000000
v -3.551550 1.550348 -0.086537
v -3.551550 1.486999 -0.149886
v -3.551550 1.400462 -0.173074
v -3.605497 0.134008 1.000000
v -3.605497 0.134008 -1.000000
vt 0.437853 0.799372
vt 0.411922 0.835247
vt 0.401291 0.809319
vt 0.419439 0.784212
vt 0.447344 0.750365
vt 0.426081 0.749914
vt 0.315147 0.799372
vt 0.437171 0.953760
vt 0.437171 0.975161
vt 0.328066 0.975161
vt 0.328066 0.953760
vt 0.958213 0.917370
vt 0.912863 0.917370
vt 0.958213 0.917370
vt 0.958213 0.942691
vt 0.912863 0.942691
vt 0.912863 0.917370
vt 0.437171 0.982995
vt 0.328066 0.982995
vt 0.437171 0.873890
vt 0.437171 0.895291
vt 0.905749 0.867712
vt 0.905749 0.792754
vt 0.305656 0.750365
vt 0.326919 0.749914
vt 0.333562 0.784212
vt 0.341078 0.835247
vt 0.351710 0.809319
vt 0.376500 0.848379
vt 0.376500 0.818510
vt 0.860305 0.792754
vt 0.860305 0.867712
vt 0.905749 0.690361
vt 0.860305 0.690361
vt 0.341700 0.028743
vt 0.951754 0.028743
vt 0.951754 0.137848
vt 0.905749 0.690361
vt 0.905749 0.792754
vt 0.341700 0.137848
vt 0.860305 0.792754
vt 0.860305 0.690361
vt 0.905749 0.867712
vt 0.860305 0.867712
vt 0.905749 0.892731
vt 0.624593 0.509189
vt 0.519737 0.654259
vt 0.376500 0.311020
vt 0.662974 0.311020
vt 0.128407 0.509189
vt 0.090027 0.311020
vt 0.233263 0.654259
vt 0.519737 0.654259
vt 0.624593 0.509189
vt 0.376500 0.311020
vt 0.662974 0.311020
vt 0.090027 0.311020
vt 0.128407 0.509189
vt 0.233263 0.654259
vt 0.304882 0.707359
vt 0.896575 0.895148
vt 0.860305 0.895148
vt 0.860305 0.895148
vt 0.896575 0.895148
vt 0.905749 0.892731
vt 0.376500 0.707359
vt 0.448119 0.707359
vt 0.305656 0.750365
vt 0.310625 0.696255
vt 0.310985 0.695558
vt 0.313943 0.707359
vt 0.298572 0.702680
vt 0.376500 0.552915
vt 0.376500 0.568892
vt 0.454428 0.702680
vt 0.442375 0.696255
vt 0.447344 0.750365
vt 0.439057 0.707359
vt 0.442015 0.695558
vt 0.376500 0.584869
vt 0.376500 0.707359
vt 0.304882 0.707359
vt 0.448119 0.707359
vt 0.376500 0.740186
vt 0.305656 0.750365
vt 0.326919 0.749914
vt 0.376500 0.740186
vt 0.426081 0.749914
vt 0.447344 0.750365
vt 0.315147 0.799372
vt 0.333562 0.784212
vt 0.341078 0.835247
vt 0.351710 0.809319
vt 0.376500 0.848379
vt 0.376500 0.818510
vt 0.411922 0.835247
vt 0.401291 0.809319
vt 0.437853 0.799372
vt 0.419439 0.784212
vt 0.951754 0.137848
vt 0.883027 0.690361
vt 0.883027 0.690361
vt 0.341700 0.137848
vt 0.328066 0.895291
vt 0.328066 0.873890
vt 0.437171 0.924526
vt 0.328066 0.924526
vn 0.000000 0.707106 -0.707107
vn 0.000000 0.707106 -0.707107
vn 0.000000 0.707106 -0.707107
vn 0.000000 0.707106 -0.707107
vn 0.000000 0.258819 -0.965926
vn 0.000000 0.258819 -0.965926
vn 0.000000 0.258819 -0.965926
vn 0.000000 0.258819 -0.965926
vn 0.000000 0.258819 0.965926
vn 0.000000 0.258819 0.965926
vn 0.000000 0.258819 0.965926
vn 0.000000 0.258819 0.965926
vn 0.000000 0.707106 0.707107
vn 0.000000 0.707106 0.707107
vn 0.000000 0.707106 0.707107
vn 0.000000 0.707106 0.707107
vn 0.000000 0.965926 0.258819
vn 0.000000 0.965926 0.258819
vn 0.000000 0.965926 0.258819
vn 0.000000 0.965926 0.258819
vn 0.000000 0.965926 -0.258819
vn 0.000000 0.965926 -0.258819
vn 0.000000 0.965926 -0.258819
vn 0.000000 0.965926 -0.258819
vn 1.000000 0.000000 0.000000
vn 1.000000 0.000000 0.000000
vn 1.000000 0.000000 0.000000
vn 1.000000 0.000000 0.000000
vn 1.000000 0.000000 0.000000
vn 1.000000 0.000000 0.000000
vn 1.000000 0.000000 0.000000
vn 1.000000 0.000000 0.000000
vn 1.000000 0.000000 0.000000
vn 1.000000 0.000000 0.000000
vn 1.000000 0.000000 0.000000
vn 1.000000 0.000000 0.000000
vn 1.000000 0.000000 0.000000
vn 1.000000 0.000000 0.000000
vn 0.000000 0.707108 -0.707106
vn 0.000000 0.707108 -0.707106
vn 0.000000 0.707108 -0.707106
vn 0.000000 0.707108 -0.707106
vn 0.000000 0.230057 -0.973177
vn 0.000000 0.230057 -0.973177
vn 0.000000 0.230057 -0.973177
vn 0.000000 0.230057 -0.973177
vn 0.000000 0.230057 -0.973177
vn 0.000000 0.230057 0.973177
vn 0.000000 0.230057 0.973177
vn 0.000000 0.230057 0.973177
vn 0.000000 0.230057 0.973177
vn 0.000000 0.230057 0.973177
vn 0.000000 0.707107 0.707107
vn 0.000000 0.707107 0.707107
vn 0.000000 0.707107 0.707107
vn 0.000000 0.707107 0.707107
vn 0.000000 0.881412 0.472348
vn 0.000000 0.881412 0.472348
vn 0.000000 0.881412 0.472348
vn 0.000000 0.881412 0.472348
vn 0.000000 0.881412 0.472348
vn 0.999870 -0.015565 0.004171
vn 0.999941 -0.010880 0.000746
vn 0.999889 -0.014927 0.000000
vn 0.999740 -0.022787 0.000000
vn 0.999870 -0.015565 -0.004171
vn 0.999740 -0.022787 0.000000
vn 0.999941 -0.010880 -0.000746
vn -0.999940 -0.009643 0.005293
vn -0.999870 -0.015565 0.004171
vn -0.999904 -0.013867 0.000000
vn -0.999740 -0.022787 0.000000
vn -0.999740 -0.022787 0.000000
vn -0.999870 -0.015565 -0.004171
vn -0.999940 -0.009643 -0.005293
vn -0.999939 -0.010680 -0.002862
vn -0.999943 -0.010680 0.000000
vn -0.999939 -0.010680 0.002862
vn 0.000000 -1.000000 0.000000
vn 0.000000 -1.000000 0.000000
vn 0.983029 -0.183451 0.000000
vn 0.983029 -0.183451 0.000000
vn -0.000000 0.881413 -0.472347
vn -0.000000 0.881413 -0.472347
vn -0.000000 0.881413 -0.472347
vn -0.000000 0.881413 -0.472347
vn -0.000000 0.881413 -0.472347
vn 0.751255 -0.464616 0.468772
vn 0.751255 -0.464616 0.468772
vn 0.751255 -0.464616 0.468772
vn 0.751255 -0.464616 0.468772
vn 0.724985 -0.400930 0.560047
vn 0.724985 -0.400930 0.560047
vn 0.724985 -0.400930 0.560047
vn 0.724985 -0.400930 0.560047
vn 0.724984 -0.400933 -0.560046
vn 0.724984 -0.400933 -0.560046
vn 0.724984 -0.400933 -0.560046
vn 0.724984 -0.400933 -0.560046
vn 0.751256 -0.464614 -0.468773
vn 0.751256 -0.464614 -0.468773
vn 0.751256 -0.464614 -0.468773
vn 0.751256 -0.464614 -0.468773
vn 0.703014 -0.410293 0.580888
vn 0.703014 -0.410293 0.580888
vn 0.703014 -0.410293 0.580888
vn 0.703014 -0.410293 0.580888
vn 0.703014 -0.410293 -0.580888
vn 0.703014 -0.410293 -0.580888
vn 0.703014 -0.410293 -0.580888
vn 0.703014 -0.410293 -0.580888
vn 1.000000 0.000000 0.000000
vn 1.000000 0.000000 0.000000
vn 1.000000 0.000000 0.000000
vn 1.000000 0.000000 0.000000
vn 0.999910 -0.013421 -0.000000
vn 0.999886 -0.013421 0.006863
vn 0.999886 -0.013421 -0.006863
vn 0.386708 -0.116890 0.914764
vn 0.386708 -0.116890 0.914764
vn 0.386708 -0.116890 0.914764
vn 0.386708 -0.116890 0.914764
vn 0.386708 -0.116890 -0.914764
vn 0.386708 -0.116890 -0.914764
vn 0.386708 -0.116890 -0.914764
vn 0.386708 -0.116890 -0.914764
vn 0.898646 -0.438010 0.024157
vn 0.898646 -0.438010 0.024157
vn 0.898646 -0.438010 0.024157
vn 0.898646 -0.438010 0.024157
vn 0.898646 -0.438010 0.024157
vn 0.898646 -0.438009 -0.024157
vn 0.898646 -0.438009 -0.024157
vn 0.898646 -0.438009 -0.024157
vn 0.898646 -0.438009 -0.024157
vn 0.898646 -0.438009 -0.024157
vn -0.720975 0.692039 -0.035741
vn -0.720975 0.692039 -0.035741
vn -0.720975 0.692039 -0.035741
vn -0.720975 0.692039 -0.035741
vn -0.720975 0.692039 -0.035741
vn -0.720975 0.692039 0.035741
vn -0.720975 0.692039 0.035741
vn -0.720975 0.692039 0.035741
vn -0.720975 0.692039 0.035741
vn -0.720975 0.692039 0.035741
vn 0.000000 0.024902 -0.999690
vn 0.000000 0.024902 -0.999690
vn 0.000000 0.024902 -0.999690
vn 0.000000 0.024902 -0.999690
vn 0.000000 0.024902 0.999690
vn 0.000000 0.024902 0.999690
vn 0.000000 0.024902 0.999690
vn 0.000000 0.024902 0.999690
vn -1.000000 0.000002 0.000000
vn -1.000000 0.000002 0.000000
vn -1.000000 0.000002 0.000000
vn -1.000000 0.000002 0.000000
vn -1.000000 -0.000000 0.000000
vn -1.000000 0.000000 0.000000
vn -1.000000 -0.000002 0.000000
vn -1.000000 -0.000002 0.000000
vn -1.000000 -0.000001 0.000000
vn -1.000000 -0.000001 0.000000
vn -1.000000 0.000001 0.000000
vn -1.000000 0.000001 0.000000
vn -1.000000 0.000002 0.000000
vn -1.000000 0.000002 0.000000
vn 0.000000 -0.258819 -0.965926
vn 0.000000 -0.258819 -0.965926
vn 0.000000 -0.258819 -0.965926
vn 0.000000 -0.258819 -0.965926
vn 0.000000 -0.707107 -0.707107
vn 0.000000 -0.707107 -0.707107
vn 0.000000 -0.707107 -0.707107
vn 0.000000 -0.707107 -0.707107
vn 0.000000 -0.965926 -0.258820
vn 0.000000 -0.965926 -0.258820
vn 0.000000 -0.965926 -0.258820
vn 0.000000 -0.965926 -0.258820
vn 0.000000 -0.965926 0.258820
vn 0.000000 -0.965926 0.258820
vn 0.000000 -0.965926 0.258820
vn 0.000000 -0.965926 0.258820
vn 0.000000 -0.707107 0.707107
vn 0.000000 -0.707107 0.707107
vn 0.000000 -0.707107 0.707107
vn 0.000000 -0.707107 0.707107
vn 0.000000 -0.258819 0.965926
vn 0.000000 -0.258819 0.965926
vn 0.000000 -0.258819 0.965926
vn 0.000000 -0.258819 0.965926
vn 0.000000 0.990094 0.140406
vn 0.000000 0.990094 0.140406
vn 0.000000 0.990094 0.140406
vn 0.000000 0.990094 0.140406
vn 0.000000 0.990094 -0.140406
vn 0.000000 0.990094 -0.140406
vn 0.000000 0.990094 -0.140406
vn 0.000000 0.990094 -0.140406
vn -0.983029 -0.183451 0.000000
vn -0.983029 -0.183451 0.000000
s off
g Ponta Enxada
usemtl blinn1SG
f 1/8/1 2/9/2 9/10/3 8/11/4
f 2/9/5 3/18/6 10/19/7 9/10/8
f 4/14/9 5/15/10 12/16/11 11/17/12
f 5/20/13 6/21/14 13/104/15 12/105/16
f 6/21/17 7/106/18 14/107/19 13/104/20
f 7/106/21 1/8/22 8/11/23 14/107/24
s 1
f 2/1/25 1/2/26 54/3/27 55/4/28
f 3/5/29 2/1/25 55/4/28 56/6/30
f 5/7/31 4/24/32 50/25/33 51/26/34
f 6/27/35 5/7/31 51/26/34 52/28/36
f 7/29/37 6/27/35 52/28/36 53/30/38
f 1/2/26 7/29/37 53/30/38 54/3/27
s off
f 17/22/39 18/23/40 24/31/41 23/32/42
f 18/23/43 19/33/44 65/102/45 25/34/46 24/31/47
f 20/38/48 21/39/49 27/41/50 26/42/51 64/101/52
f 21/39/53 22/43/54 28/44/55 27/41/56
f 22/43/57 38/45/58 37/61/59 32/62/60 28/44/61
s 3
f 18/46/62 17/47/63 30/48/64
f 19/49/65 18/46/62 30/48/64
f 21/50/66 20/51/67 30/48/64
f 22/52/68 21/50/66 30/48/64
s 5
f 23/53/69 24/54/70 31/55/71
f 24/54/70 25/56/72 31/55/71
f 26/57/73 27/58/74 31/55/71
f 27/58/74 28/59/75 31/55/71
f 28/59/75 32/60/76 29/66/77 31/55/71
f 29/66/77 33/67/78 23/53/69 31/55/71
s 7
f 64/35/79 65/36/80 19/37/81 20/40/82
s off
f 33/63/83 43/64/84 42/65/85 17/22/86 23/32/87
f 36/68/88 35/69/89 46/70/90 45/71/91
f 35/69/92 38/72/93 39/73/94 40/74/95
f 40/74/96 39/73/97 42/75/98 41/76/99
f 41/76/100 44/77/101 49/78/102 48/79/103
f 45/71/104 46/70/105 40/74/106 47/80/107
f 47/80/108 40/74/109 48/79/110 49/78/111
s 8
f 34/81/112 45/71/113 47/80/114
f 47/80/114 49/78/115 34/81/112
s 3
f 39/73/116 38/72/117 22/52/68 30/48/64
f 17/47/63 42/75/118 39/73/116 30/48/64
s off
f 35/69/119 36/68/120 37/82/121 38/72/122
f 41/76/123 42/75/124 43/83/125 44/77/126
f 15/84/127 50/25/128 4/24/129 45/71/130 34/81/131
f 3/5/132 56/6/133 15/84/134 34/81/135 49/78/136
f 11/85/137 57/86/138 16/87/139 29/66/140 32/60/141
f 16/87/142 63/88/143 10/89/144 33/67/145 29/66/146
f 10/13/147 3/12/148 43/64/149 33/63/150
f 4/14/151 11/17/152 32/62/153 37/61/154
s 9
f 11/85/155 12/90/156 58/91/157 57/86/158
f 12/90/156 13/92/159 59/93/160 58/91/157
f 13/92/159 14/94/161 60/95/162 59/93/160
f 14/94/161 8/96/163 61/97/164 60/95/162
f 8/96/163 9/98/165 62/99/166 61/97/164
f 9/98/165 10/89/167 63/88/168 62/99/166
s off
f 51/26/169 50/25/170 57/86/171 58/91/172
f 52/28/173 51/26/174 58/91/175 59/93/176
f 53/30/177 52/28/178 59/93/179 60/95/180
f 54/3/181 53/30/182 60/95/183 61/97/184
f 55/4/185 54/3/186 61/97/187 62/99/188
f 56/6/189 55/4/190 62/99/191 63/88/192
f 15/84/193 56/6/194 63/88/195 16/87/196
f 50/25/197 15/84/198 16/87/199 57/86/200
s 7
f 25/100/201 65/36/80 64/35/79 26/103/202
g default
v 0.949585 1.562981 -0.036991
v 0.949585 1.542027 -0.068350
v 0.949585 1.510668 -0.089304
v 0.949585 1.473677 -0.096662
v 0.949585 1.436686 -0.089304
v 0.949585 1.405326 -0.068350
v 0.949585 1.384373 -0.036991
v 0.949585 1.377015 -0.000000
v 0.949585 1.384373 0.036991
v 0.949585 1.405326 0.068350
v 0.949585 1.436686 0.089304
v 0.949585 1.473677 0.096662
v 0.949585 1.510668 0.089304
v 0.949585 1.542027 0.068350
v 0.949585 1.562981 0.036991
v 0.949585 1.570339 0.000000
v -3.801667 1.562981 -0.036991
v -3.801667 1.542027 -0.068350
v -3.801667 1.510668 -0.089304
v -3.801667 1.473677 -0.096662
v -3.801667 1.436686 -0.089304
v -3.801667 1.405326 -0.068350
v -3.801667 1.384373 -0.036991
v -3.801667 1.377015 -0.000000
v -3.801667 1.384373 0.036991
v -3.801667 1.405326 0.068350
v -3.801667 1.436686 0.089304
v -3.801667 1.473677 0.096662
v -3.801667 1.510668 0.089304
v -3.801667 1.542027 0.068350
v -3.801667 1.562981 0.036991
v -3.801667 1.570339 0.000000
v 0.973865 1.473677 0.000000
v -3.817860 1.473677 0.000000
vt 0.644356 0.096456
vt 0.610485 0.045765
vt 0.559794 0.011894
vt 0.500000 0.000000
vt 0.440206 0.011894
vt 0.389515 0.045765
vt 0.355644 0.096456
vt 0.343750 0.156250
vt 0.355644 0.216044
vt 0.389515 0.266735
vt 0.440206 0.300606
vt 0.500000 0.312500
vt 0.559794 0.300606
vt 0.610485 0.266735
vt 0.644356 0.216044
vt 0.656250 0.156250
vt 0.077032 0.154090
vt 0.129903 0.154090
vt 0.182774 0.154090
vt 0.235645 0.154090
vt 0.288516 0.154090
vt 0.341387 0.154090
vt 0.394258 0.154090
vt 0.447129 0.154090
vt 0.500000 0.154090
vt 0.552871 0.154090
vt 0.605742 0.154090
vt 0.658613 0.154090
vt 0.711484 0.154090
vt 0.764355 0.154090
vt 0.817226 0.154090
vt 0.870097 0.154090
vt 0.922968 0.154090
vt 0.077032 0.846849
vt 0.129903 0.846849
vt 0.182774 0.846849
vt 0.235645 0.846849
vt 0.288516 0.846849
vt 0.341387 0.846849
vt 0.394258 0.846849
vt 0.447129 0.846849
vt 0.500000 0.846849
vt 0.552871 0.846849
vt 0.605742 0.846849
vt 0.658613 0.846849
vt 0.711484 0.846849
vt 0.764355 0.846849
vt 0.817226 0.846849
vt 0.870097 0.846849
vt 0.922968 0.846849
vt 0.644356 0.783956
vt 0.610485 0.733265
vt 0.559794 0.699394
vt 0.500000 0.687500
vt 0.440206 0.699394
vt 0.389515 0.733265
vt 0.355644 0.783956
vt 0.343750 0.843750
vt 0.355644 0.903544
vt 0.389515 0.954235
vt 0.440206 0.988106
vt 0.500000 1.000000
vt 0.559794 0.988106
vt 0.610485 0.954235
vt 0.644356 0.903544
vt 0.656250 0.843750
vt 0.500000 0.150000
vt 0.500000 0.837500
vn 0.000000 0.923880 -0.382683
vn -0.000000 0.707107 -0.707106
vn -0.000000 0.707107 -0.707106
vn 0.000000 0.923880 -0.382683
vn -0.000000 0.382684 -0.923879
vn -0.000000 0.382684 -0.923879
vn -0.000000 0.000000 -1.000000
vn -0.000000 0.000000 -1.000000
vn -0.000000 -0.382683 -0.923880
vn -0.000000 -0.382683 -0.923880
vn -0.000000 -0.707106 -0.707107
vn -0.000000 -0.707106 -0.707107
vn -0.000000 -0.923879 -0.382684
vn -0.000000 -0.923879 -0.382684
vn -0.000000 -1.000000 -0.000000
vn -0.000000 -1.000000 -0.000000
vn -0.000000 -0.923880 0.382683
vn -0.000000 -0.923880 0.382683
vn 0.000000 -0.707107 0.707107
vn 0.000000 -0.707107 0.707107
vn 0.000000 -0.382684 0.923879
vn 0.000000 -0.382684 0.923879
vn 0.000000 -0.000000 1.000000
vn 0.000000 -0.000000 1.000000
vn 0.000000 0.382683 0.923880
vn 0.000000 0.382683 0.923880
vn 0.000000 0.707107 0.707107
vn 0.000000 0.707107 0.707107
vn 0.000000 0.923880 0.382683
vn 0.000000 0.923880 0.382683
vn 0.000000 1.000000 0.000000
vn 0.000000 1.000000 0.000000
vn 0.969871 0.172262 -0.172264
vn 0.969872 0.225072 -0.093223
vn 1.000000 -0.000000 0.000001
vn 0.969871 0.093228 -0.225076
vn 0.969871 0.000000 -0.243618
vn 0.969872 -0.093228 -0.225070
vn 0.969871 -0.172262 -0.172264
vn 0.969872 -0.225071 -0.093231
vn 0.969872 -0.243616 0.000000
vn 0.969872 -0.225072 0.093227
vn 0.969871 -0.172262 0.172264
vn 0.969871 -0.093228 0.225076
vn 0.969871 -0.000000 0.243618
vn 0.969870 0.093227 0.225077
vn 0.969871 0.172262 0.172268
vn 0.969872 0.225072 0.093227
vn 0.969872 0.243616 0.000004
vn -0.986257 0.152645 -0.063225
vn -0.986257 0.116829 -0.116827
vn -1.000000 -0.000000 0.000001
vn -0.986257 0.063228 -0.152643
vn -0.986256 0.000000 -0.165223
vn -0.986257 -0.063228 -0.152644
vn -0.986257 -0.116829 -0.116827
vn -0.986256 -0.152645 -0.063229
vn -0.986256 -0.165222 0.000004
vn -0.986256 -0.152645 0.063233
vn -0.986257 -0.116829 0.116827
vn -0.986257 -0.063228 0.152643
vn -0.986256 -0.000000 0.165223
vn -0.986257 0.063228 0.152644
vn -0.986257 0.116829 0.116827
vn -0.986256 0.152645 0.063229
vn -0.986256 0.165221 0.000004
s 1
g Enxada cabo
usemtl lambert4SG
f 66/124/203 67/125/204 83/142/205 82/141/206
f 67/125/204 68/126/207 84/143/208 83/142/205
f 68/126/207 69/127/209 85/144/210 84/143/208
f 69/127/209 70/128/211 86/145/212 85/144/210
f 70/128/211 71/129/213 87/146/214 86/145/212
f 71/129/213 72/130/215 88/147/216 87/146/214
f 72/130/215 73/131/217 89/148/218 88/147/216
f 73/131/217 74/132/219 90/149/220 89/148/218
f 74/132/219 75/133/221 91/150/222 90/149/220
f 75/133/221 76/134/223 92/151/224 91/150/222
f 76/134/223 77/135/225 93/152/226 92/151/224
f 77/135/225 78/136/227 94/153/228 93/152/226
f 78/136/227 79/137/229 95/154/230 94/153/228
f 79/137/229 80/138/231 96/155/232 95/154/230
f 80/138/231 81/139/233 97/156/234 96/155/232
f 81/139/233 66/140/203 82/157/206 97/156/234
s 2
f 67/109/235 66/108/236 98/174/237
f 68/110/238 67/109/235 98/174/237
f 69/111/239 68/110/238 98/174/237
f 70/112/240 69/111/239 98/174/237
f 71/113/241 70/112/240 98/174/237
f 72/114/242 71/113/241 98/174/237
f 73/115/243 72/114/242 98/174/237
f 74/116/244 73/115/243 98/174/237
f 75/117/245 74/116/244 98/174/237
f 76/118/246 75/117/245 98/174/237
f 77/119/247 76/118/246 98/174/237
f 78/120/248 77/119/247 98/174/237
f 79/121/249 78/120/248 98/174/237
f 80/122/250 79/121/249 98/174/237
f 81/123/251 80/122/250 98/174/237
f 66/108/236 81/123/251 98/174/237
s 3
f 82/172/252 83/171/253 99/175/254
f 83/171/253 84/170/255 99/175/254
f 84/170/255 85/169/256 99/175/254
f 85/169/256 86/168/257 99/175/254
f 86/168/257 87/167/258 99/175/254
f 87/167/258 88/166/259 99/175/254
f 88/166/259 89/165/260 99/175/254
f 89/165/260 90/164/261 99/175/254
f 90/164/261 91/163/262 99/175/254
f 91/163/262 92/162/263 99/175/254
f 92/162/263 93/161/264 99/175/254
f 93/161/264 94/160/265 99/175/254
f 94/160/265 95/159/266 99/175/254
f 95/159/266 96/158/267 99/175/254
f 96/158/267 97/173/268 99/175/254
f 97/173/268 82/172/252 99/175/254
