# This file uses centimeters as units for non-parametric coordinates.

mtllib RedMapleLeaf2.mtl
g default
v -10.423636 17.354519 0.000000
v -9.100539 22.922819 0.000000
v -5.724238 22.234619 0.000000
v -5.941678 10.179199 0.000000
v -0.500997 9.310839 0.000000
v 0.000000 -0.433481 0.000000
v 0.000000 9.209579 0.000000
v 0.000000 14.315519 0.000000
v 0.000000 21.735420 0.000000
v 0.000000 28.336319 0.000000
v 0.528515 9.120249 0.000000
v 5.695601 21.797618 0.000000
v 5.490505 10.416989 0.000000
v 8.923936 16.128919 0.000000
v 8.956582 22.835418 0.000000
vt 0.454761 0.250234
vt 0.460823 -0.018869
vt 0.480617 0.245148
vt 0.507947 0.240485
vt 0.003464 0.631850
vt 0.185061 0.293851
vt 0.714191 0.796296
vt 0.930479 0.537101
vt 0.885861 0.822817
vt 0.506425 0.759569
vt 0.520025 0.991467
vt 0.246369 0.802022
vt 0.766429 0.271018
vt 0.491137 0.498900
vt 0.072174 0.836491
vn 0.000000 0.000000 1.000000
vn 0.000000 0.000000 1.000000
vn 0.000000 0.000000 1.000000
vn 0.000000 0.000000 1.000000
vn 0.000000 0.000000 1.000000
vn 0.000000 0.000000 1.000000
vn 0.000000 0.000000 1.000000
vn 0.000000 0.000000 1.000000
vn 0.000000 0.000000 1.000000
vn 0.000000 0.000000 1.000000
vn 0.000000 0.000000 1.000000
vn 0.000000 0.000000 1.000000
vn 0.000000 0.000000 1.000000
vn 0.000000 0.000000 1.000000
vn 0.000000 0.000000 1.000000
vn 0.000000 0.000000 1.000000
vn 0.000000 0.000000 1.000000
vn 0.000000 0.000000 1.000000
vn 0.000000 0.000000 1.000000
vn 0.000000 0.000000 1.000000
vn 0.000000 0.000000 1.000000
vn 0.000000 0.000000 1.000000
vn 0.000000 0.000000 1.000000
vn 0.000000 0.000000 1.000000
vn 0.000000 0.000000 1.000000
vn 0.000000 0.000000 1.000000
vn 0.000000 0.000000 1.000000
vn 0.000000 0.000000 1.000000
vn 0.000000 0.000000 1.000000
vn 0.000000 0.000000 1.000000
vn 0.000000 0.000000 1.000000
vn 0.000000 0.000000 1.000000
vn 0.000000 0.000000 1.000000
vn 0.000000 0.000000 1.000000
vn 0.000000 0.000000 1.000000
vn 0.000000 0.000000 1.000000
vn 0.000000 0.000000 1.000000
vn 0.000000 0.000000 1.000000
vn 0.000000 0.000000 1.000000
vn 0.000000 0.000000 1.000000
vn 0.000000 0.000000 1.000000
vn 0.000000 0.000000 1.000000
vn 0.000000 0.000000 1.000000
vn 0.000000 0.000000 1.000000
vn 0.000000 0.000000 1.000000
vn 0.000000 0.000000 1.000000
vn 0.000000 0.000000 1.000000
vn 0.000000 0.000000 1.000000
s off
g RedMapleLeaf:Mesh
usemtl initialShadingGroup
f 5/1/1 6/2/2 7/3/3
f 6/2/4 11/4/5 7/3/6
f 5/1/7 1/5/8 4/6/9
f 12/7/10 14/8/11 15/9/12
f 9/10/13 12/7/14 10/11/15
f 3/12/16 9/10/17 10/11/18
f 13/13/19 14/8/20 11/4/21
f 8/14/22 9/10/23 3/12/24
f 7/3/25 8/14/26 5/1/27
f 11/4/28 8/14/29 7/3/30
f 11/4/31 14/8/32 8/14/33
f 5/1/34 8/14/35 1/5/36
f 1/5/37 3/12/38 2/15/39
f 8/14/40 12/7/41 9/10/42
f 8/14/43 14/8/44 12/7/45
f 8/14/46 3/12/47 1/5/48
